<svg data-v-fde0c5aa="" xmlns="http://www.w3.org/2000/svg" viewBox="0 0 300 300" class="iconLeft"><!----><defs data-v-fde0c5aa=""><!----></defs><rect data-v-fde0c5aa="" fill="transparent" x="0" y="0" width="300px" height="300px" class="logo-background-square"></rect><defs data-v-fde0c5aa=""><!----></defs><g data-v-fde0c5aa="" id="a5784255-9373-4ad9-9fd7-583dbc188d34" fill="#000000" transform="matrix(2.7646782858049987,0,0,2.7646782858049987,93.81518193878112,124.88289634969615)"><path d="M0.51 10.44L0.51 10.44Q0.51 8.30 3.63 8.30L3.63 8.30Q4.36 8.30 5.09 8.44L5.09 8.44L5.09 7.90Q5.09 6.93 3.71 6.93L3.71 6.93Q2.53 6.93 1.09 7.27L1.09 7.27L1.09 5.84Q2.53 5.50 3.71 5.50L3.71 5.50Q6.90 5.50 6.90 7.86L6.90 7.86L6.90 12.67L5.85 12.67L5.21 12.03Q4.27 12.67 3.14 12.67L3.14 12.67Q0.51 12.67 0.51 10.44ZM5.09 9.67Q4.41 9.53 3.63 9.53L3.63 9.53Q2.32 9.53 2.32 10.42L2.32 10.42Q2.32 11.38 3.42 11.38L3.42 11.38Q4.32 11.38 5.09 10.81L5.09 10.81L5.09 9.67ZM13.26 5.50L15.07 5.50L15.07 12.67L13.66 12.67L13.44 11.76Q12.20 12.67 10.81 12.67L10.81 12.67Q8.61 12.67 8.61 10.07L8.61 10.07L8.61 5.50L10.42 5.50L10.42 10.02Q10.42 11.21 11.46 11.21L11.46 11.21Q12.35 11.21 13.26 10.51L13.26 10.51L13.26 5.50ZM16.68 10.74L16.68 4.33L18.02 4.33L18.29 5.50L20.10 5.50L20.10 6.93L18.49 6.93L18.49 10.23Q18.49 11.24 19.36 11.24L19.36 11.24L20.10 11.24L20.10 12.67L18.48 12.67Q16.68 12.67 16.68 10.74L16.68 10.74ZM22.80 9.06Q22.80 11.31 24.54 11.31L24.54 11.31Q26.28 11.31 26.28 9.06L26.28 9.06Q26.28 6.86 24.54 6.86L24.54 6.86Q22.80 6.86 22.80 9.06L22.80 9.06ZM20.99 9.08L20.99 9.08Q20.99 5.48 24.54 5.48L24.54 5.48Q28.10 5.48 28.10 9.08L28.10 9.08Q28.10 12.69 24.54 12.69L24.54 12.69Q21 12.69 20.99 9.08ZM34.06 10.66L34.06 7.12Q33.61 6.96 32.79 6.96L32.79 6.96Q30.91 6.96 30.91 9.03L30.91 9.03Q30.91 11.03 32.53 11.03L32.53 11.03Q33.31 11.03 34.06 10.66L34.06 10.66ZM35.87 5.79L35.87 12.13Q35.87 15.27 32.09 15.27L32.09 15.27Q30.76 15.27 29.74 14.93L29.74 14.93L29.74 13.49Q30.78 13.84 32.10 13.84L32.10 13.84Q34.06 13.84 34.06 12.20L34.06 12.20Q33.25 12.54 32.32 12.54L32.32 12.54Q29.12 12.54 29.12 9.04L29.12 9.04Q29.12 5.50 32.85 5.50L32.85 5.50Q34.10 5.50 35.87 5.79L35.87 5.79ZM40.61 5.50L40.61 5.50Q43.87 5.50 43.87 8.83L43.87 8.83Q43.87 9.28 43.81 9.72L43.81 9.72L39.05 9.72Q39.05 11.24 41.28 11.24L41.28 11.24Q42.36 11.24 43.45 11.03L43.45 11.03L43.45 12.47Q42.50 12.67 41.14 12.67L41.14 12.67Q37.24 12.67 37.24 9.00L37.24 9.00Q37.24 5.50 40.61 5.50ZM39.05 8.46L39.05 8.46L42.11 8.46L42.11 8.41Q42.11 6.92 40.61 6.92L40.61 6.92Q39.17 6.92 39.05 8.46ZM48.26 5.50L48.26 5.50Q51.53 5.50 51.53 8.83L51.53 8.83Q51.53 9.28 51.47 9.72L51.47 9.72L46.70 9.72Q46.70 11.24 48.93 11.24L48.93 11.24Q50.02 11.24 51.11 11.03L51.11 11.03L51.11 12.47Q50.16 12.67 48.79 12.67L48.79 12.67Q44.89 12.67 44.89 9.00L44.89 9.00Q44.89 5.50 48.26 5.50ZM46.70 8.46L46.70 8.46L49.77 8.46L49.77 8.41Q49.77 6.92 48.26 6.92L48.26 6.92Q46.83 6.92 46.70 8.46ZM54.70 12.67L52.89 12.67L52.89 2.90L54.70 2.90L54.70 6.06Q55.82 5.50 57.05 5.50L57.05 5.50Q59.79 5.50 59.79 7.57L59.79 7.57Q59.79 9.07 57.88 9.92L57.88 9.92L60.11 12.67L57.89 12.67L56.02 10.11L56.02 9.27Q57.98 8.85 57.98 7.90L57.98 7.90Q57.98 6.93 56.68 6.93L56.68 6.93Q55.77 6.93 54.70 7.51L54.70 7.51L54.70 12.67Z"></path></g><defs data-v-fde0c5aa=""><linearGradient data-v-fde0c5aa="" gradientTransform="rotate(25)" id="8fc9313d-ab53-4d6a-aa11-b25fabc11685" x1="0%" y1="0%" x2="100%" y2="0%"><stop data-v-fde0c5aa="" offset="0%" stop-color="#B41E37" stop-opacity="1"></stop><stop data-v-fde0c5aa="" offset="100%" stop-color="#B89DAD" stop-opacity="1"></stop></linearGradient></defs><g data-v-fde0c5aa="" id="0b2f0375-2739-464e-9b00-d680e948e454" stroke="none" fill="url(#8fc9313d-ab53-4d6a-aa11-b25fabc11685)" transform="matrix(1.6030815335446025,0,0,1.6030815335446025,35.46327938237419,124.35069546328636)"><path d="M2.83 18.247l26.34-9.124L2.83 0zM29.17 32V13.753L2.83 22.877z"></path></g><!----></svg>